<?xml version="1.0" encoding="utf-8"?>
<!-- Generator: Adobe Illustrator 16.0.0, SVG Export Plug-In . SVG Version: 6.00 Build 0)  -->
<!DOCTYPE svg PUBLIC "-//W3C//DTD SVG 1.1//EN" "http://www.w3.org/Graphics/SVG/1.1/DTD/svg11.dtd">
<svg version="1.1" xmlns="http://www.w3.org/2000/svg" xmlns:xlink="http://www.w3.org/1999/xlink" x="0px" y="0px" width="60px"
	 height="60px" viewBox="0 0 60 60" enable-background="new 0 0 60 60" xml:space="preserve">
<g id="Layer_1">
</g>
<g id="txt">
	<linearGradient id="SVGID_2_" gradientUnits="userSpaceOnUse" x1="30" y1="58.4287" x2="30" y2="6.3554">
		<stop  offset="0" style="stop-color:#477256"/>
		<stop  offset="1" style="stop-color:#135D6B"/>
	</linearGradient>
	<rect y="0.001" fill="url(#SVGID_2_)" width="60" height="60"/>
	<g>
		<path fill="#FFFFFF" d="M47.678,49.464c0,1.09-0.877,1.974-1.959,1.974H14.283c-1.084,0-1.961-0.884-1.961-1.974v-27.47
			c0-1.09,0.877-1.974,1.961-1.974h31.436c1.082,0,1.959,0.884,1.959,1.974V49.464z"/>
	</g>
	<g>
		<g>
			<path fill="none" stroke="#293F54" stroke-width="0.5669" stroke-miterlimit="10" d="M46.074,48.729c0,0.551-0.447,1-1,1H15.512
				c-0.552,0-1-0.449-1-1v-26c0-0.553,0.448-1,1-1h29.563c0.553,0,1,0.447,1,1V48.729z"/>
			
				<line fill="none" stroke="#293F54" stroke-width="0.5669" stroke-miterlimit="10" x1="14.324" y1="28.667" x2="46.012" y2="28.667"/>
			<circle fill="#00B1CC" cx="17.074" cy="25.292" r="0.813"/>
			<circle fill="#00B1CC" cx="21.074" cy="25.292" r="0.813"/>
			<circle fill="#00B1CC" cx="25.074" cy="25.292" r="0.813"/>
			<circle fill="#293F54" cx="30.449" cy="25.292" r="0.5"/>
			<circle fill="#293F54" cx="32.975" cy="25.292" r="0.5"/>
			<circle fill="#293F54" cx="35.5" cy="25.292" r="0.5"/>
			<circle fill="#293F54" cx="38.025" cy="25.292" r="0.5"/>
			<circle fill="#293F54" cx="40.55" cy="25.292" r="0.5"/>
			<circle fill="#293F54" cx="43.074" cy="25.292" r="0.5"/>
		</g>
		<rect x="22.244" y="34.323" fill="#99E0EB" width="17.806" height="13.453"/>
		<path fill="#00B1CC" d="M13.926,38.325"/>
		
			<rect x="21.26" y="31.278" fill="#FFC500" stroke="#293F54" stroke-width="0.4544" stroke-linecap="round" stroke-linejoin="round" stroke-miterlimit="10" width="16.998" height="14.436"/>
		
			<path fill="#FFFFFF" stroke="#293F54" stroke-width="0.3844" stroke-linecap="round" stroke-linejoin="round" stroke-miterlimit="10" d="
			M33.509,38.94c0,0.475-0.532,0.857-1.188,0.857h-5.753c-0.656,0-1.188-0.383-1.188-0.857v-0.691c0-0.473,0.532-0.857,1.188-0.857
			h5.753c0.656,0,1.188,0.385,1.188,0.857V38.94z"/>
		<path fill="#293F54" d="M33.509,42.599c0,0.473-0.532,0.857-1.188,0.857h-5.753c-0.656,0-1.188-0.385-1.188-0.857v-0.691
			c0-0.473,0.532-0.857,1.188-0.857h5.753c0.656,0,1.188,0.385,1.188,0.857V42.599z"/>
		<g>
			<path fill="#FFFFFF" d="M23.527,33.202h0.543v1.906h1.179v0.443h-1.722V33.202z"/>
			<path fill="#FFFFFF" d="M25.367,34.378c0-0.699,0.545-1.215,1.286-1.215c0.739,0,1.286,0.512,1.286,1.215
				c0,0.701-0.547,1.215-1.286,1.215C25.912,35.593,25.367,35.075,25.367,34.378z M27.389,34.378c0-0.447-0.315-0.752-0.735-0.752
				c-0.419,0-0.735,0.305-0.735,0.752c0,0.445,0.316,0.752,0.735,0.752C27.073,35.13,27.389,34.823,27.389,34.378z"/>
			<path fill="#FFFFFF" d="M29.938,34.341h0.497v0.953c-0.258,0.195-0.614,0.299-0.95,0.299c-0.738,0-1.282-0.508-1.282-1.215
				c0-0.709,0.544-1.215,1.293-1.215c0.412,0,0.755,0.141,0.982,0.404L30.13,33.89c-0.171-0.18-0.369-0.264-0.607-0.264
				c-0.456,0-0.769,0.305-0.769,0.752c0,0.439,0.313,0.752,0.762,0.752c0.148,0,0.285-0.027,0.423-0.102V34.341z"/>
			<path fill="#FFFFFF" d="M30.941,33.202h0.543v2.35h-0.543V33.202z"/>
			<path fill="#FFFFFF" d="M34.198,33.202v2.35h-0.446l-1.172-1.426v1.426h-0.537v-2.35h0.45l1.168,1.428v-1.428H34.198z"/>
			<path fill="#FFFFFF" d="M34.594,34.046c0-0.195,0.144-0.322,0.325-0.322c0.181,0,0.325,0.127,0.325,0.322
				c0,0.191-0.145,0.328-0.325,0.328C34.737,34.374,34.594,34.237,34.594,34.046z M34.594,35.251c0-0.195,0.144-0.322,0.325-0.322
				c0.181,0,0.325,0.127,0.325,0.322c0,0.191-0.145,0.328-0.325,0.328C34.737,35.579,34.594,35.442,34.594,35.251z"/>
		</g>
	</g>
	<path fill="#98C020" d="M29.011,7.009c0.309,0,0.575-0.107,0.8-0.324c0.199-0.191,0.304-0.392,0.313-0.6
		c0.009-0.141-0.046-0.281-0.163-0.418c-0.116-0.138-0.263-0.206-0.437-0.206c-0.3,0-0.573,0.1-0.819,0.3
		c-0.244,0.199-0.372,0.407-0.38,0.624C28.308,6.801,28.536,7.009,29.011,7.009z"/>
	<path fill="#FFFFFF" d="M37.515,11.229l-0.14-0.185c-0.095,0.108-0.214,0.225-0.361,0.348c-0.179,0.147-0.302,0.222-0.37,0.222
		c-0.094,0-0.154-0.02-0.178-0.06c-0.024-0.039-0.035-0.11-0.029-0.214c0-0.039,0.03-0.191,0.092-0.455
		c0.062-0.263,0.095-0.464,0.101-0.602c0.004-0.202-0.033-0.358-0.111-0.466C36.414,9.685,36.241,9.628,36,9.646
		c-0.281,0.025-0.574,0.136-0.88,0.333c-0.128,0.084-0.251,0.183-0.37,0.296c0.213-0.89,0.321-1.497,0.326-1.824
		c0.005-0.483-0.194-0.733-0.599-0.748c-0.458-0.016-0.794,0.243-1.006,0.776c0.089-0.04,0.174-0.06,0.251-0.06
		c0.064,0,0.131,0.04,0.2,0.118c0.103,0.124,0.146,0.313,0.125,0.57c-0.014,0.188-0.059,0.591-0.134,1.207
		c-0.016,0.154-0.032,0.296-0.046,0.428c-0.029,0.021-0.057,0.042-0.088,0.063c-0.374,0.249-0.716,0.374-1.022,0.374
		c-0.408,0-0.608-0.153-0.6-0.461c0.017-0.534,0.107-1.233,0.274-2.099h0.887c0.067,0,0.101-0.029,0.101-0.088l0.11-0.536
		c0.018-0.084-0.019-0.125-0.11-0.125h-0.837c0.199-0.949,0.337-1.607,0.411-1.974c0.017-0.066-0.033-0.1-0.148-0.1
		c-0.219,0-0.501,0.092-0.85,0.274c-0.375,0.2-0.58,0.4-0.612,0.6l-0.2,1.199h-0.513c-0.066,0-0.104,0.029-0.112,0.087l-0.112,0.537
		C30.43,8.579,30.468,8.62,30.559,8.62h0.514c-0.126,0.723-0.222,1.32-0.285,1.796c-0.124,0.124-0.266,0.254-0.428,0.39
		c-0.299,0.249-0.507,0.374-0.623,0.374c-0.268,0-0.396-0.179-0.389-0.537c0.125-0.782,0.242-1.427,0.35-1.935
		c0.033-0.3-0.015-0.544-0.144-0.731c-0.129-0.187-0.33-0.269-0.604-0.243c-0.176,0.017-0.441,0.184-0.8,0.5
		c-0.266,0.241-0.533,0.482-0.8,0.724l0.288,0.338c0.232-0.176,0.374-0.263,0.424-0.263c0.15,0,0.225,0.108,0.225,0.324
		c0,0.042-0.081,0.351-0.243,0.924c-0.041,0.146-0.077,0.282-0.108,0.409c-0.375,0.26-0.856,0.531-1.446,0.815
		c0.301-0.991,0.466-1.915,0.499-2.772c0.026-0.69-0.282-1.045-0.923-1.062c-0.774-0.024-1.282,0.408-1.523,1.299
		c0.135-0.058,0.274-0.087,0.418-0.087c0.118,0,0.215,0.047,0.292,0.143c0.075,0.097,0.109,0.207,0.102,0.331
		c-0.009,0.325-0.175,0.673-0.497,1.043c-0.323,0.371-0.61,0.557-0.862,0.557c-0.176,0-0.261-0.15-0.252-0.45
		c0.009-0.158,0.063-0.479,0.162-0.962c0.091-0.457,0.137-0.766,0.137-0.924c0-0.274-0.07-0.497-0.211-0.668
		c-0.142-0.171-0.347-0.244-0.612-0.219c-0.184,0.017-0.454,0.184-0.812,0.5c-0.267,0.241-0.532,0.482-0.8,0.724l0.287,0.338
		c0.233-0.176,0.376-0.263,0.425-0.263c0.158,0,0.233,0.108,0.225,0.324c0,0.018-0.074,0.279-0.225,0.787
		c-0.149,0.508-0.228,0.887-0.236,1.137c-0.017,0.342,0.046,0.604,0.188,0.786c0.174,0.225,0.467,0.32,0.876,0.287
		c0.485-0.033,0.97-0.212,1.455-0.537c0.201-0.133,0.393-0.287,0.576-0.462c-0.066,0.333-0.146,0.616-0.236,0.85
		c-0.9,0.408-1.549,0.758-1.948,1.049c-0.566,0.407-0.87,0.845-0.911,1.311c-0.076,0.808,0.332,1.212,1.223,1.212
		c0.6,0,1.179-0.366,1.736-1.1c0.475-0.623,0.887-1.456,1.236-2.497c0.605-0.3,1.116-0.594,1.535-0.882
		c-0.014,0.097-0.022,0.183-0.024,0.258c-0.009,0.267,0.057,0.482,0.193,0.649c0.138,0.167,0.335,0.25,0.594,0.25
		c0.557,0,1.116-0.242,1.674-0.725c0.162-0.143,0.31-0.292,0.444-0.448c-0.007,0.107-0.01,0.199-0.009,0.273
		c0.009,0.6,0.358,0.899,1.05,0.899c0.565,0,1.174-0.242,1.823-0.725c0.089-0.065,0.17-0.13,0.248-0.194c0,0.003,0,0.007,0,0.01
		c-0.01,0.237,0.045,0.425,0.162,0.563c0.148,0.167,0.389,0.246,0.725,0.237c-0.044-0.104-0.062-0.297-0.051-0.577
		c0.009-0.32,0.121-0.624,0.334-0.909c0.193-0.262,0.373-0.392,0.537-0.392c0.108,0,0.158,0.091,0.148,0.273
		c-0.006,0.118-0.034,0.289-0.086,0.514c-0.051,0.224-0.079,0.417-0.085,0.58c-0.005,0.158,0.034,0.286,0.115,0.384
		c0.081,0.1,0.197,0.148,0.351,0.148c0.33,0,0.66-0.143,0.991-0.429C37.188,11.727,37.377,11.489,37.515,11.229z M23.642,14.04
		c-0.134,0-0.195-0.059-0.187-0.175c0.016-0.217,0.39-0.504,1.122-0.862C24.195,13.694,23.884,14.04,23.642,14.04z"/>
</g>
</svg>
